# xmcd
#
# Track frame offsets: 
#        150
#        28501
#        53702
#        83627
#        113853
#        123678
#        146404
#        178280
#        211131
#        239707
#
# Disc length: 3470 seconds
#
# Revision: 3
# Processed by: cddbd v1.5.2PL0 Copyright (c) Steve Scherf et al.
# Submitted via: ExactAudioCopy v1.0b1
#
DISCID=8d0d8c0a
DTITLE=New York Trio - Stairway To The Stars (GoldCD, Album Japan Venu
DTITLE=s Records TKCV-35537)
DYEAR=2004
DGENRE=Jazz
TTITLE0=Lover Come Back To Me
TTITLE1=Stairway To The Stars
TTITLE2=Lullaby OfThe Leaves
TTITLE3=Smoke Gets In Your Eyes
TTITLE4=I'll Be Seeing You
TTITLE5=Can't Help Loving Dat Man
TTITLE6=Body And Soul
TTITLE7=The Man I Love
TTITLE8=A Sleeping Bee
TTITLE9=Stella By Starlight
EXTD=YEAR: 2005
EXTT0=
EXTT1=
EXTT2=
EXTT3=
EXTT4=
EXTT5=
EXTT6=
EXTT7=
EXTT8=
EXTT9=
PLAYORDER=
